<svg width="1024" height="1024" viewBox="0 0 1024 1024" xmlns="http://www.w3.org/2000/svg">
  <title>WatchBeat</title>
  <desc>Flat gold balance wheel with three tapered spokes and Archimedean hairspring, garnet jewel at center, on dark navy background</desc>

  <rect width="1024" height="1024" fill="#0a0e1a"/>

  <g fill="#d4a84a" stroke="none">
    <path d="M 512 60 a 452 452 0 1 1 -0.01 0 z M 512 92 a 420 420 0 1 0 0.01 0 z" fill-rule="evenodd"/>

    <g transform="rotate(12 512 512)">
      <path d="M 478 560 L 546 560 L 528 80 L 496 80 Z"/>
      <path d="M 478 560 L 546 560 L 528 80 L 496 80 Z" transform="rotate(120 512 512)"/>
      <path d="M 478 560 L 546 560 L 528 80 L 496 80 Z" transform="rotate(240 512 512)"/>
    </g>

    <circle cx="512" cy="512" r="62"/>
  </g>

  <g transform="rotate(16 512 512)">
    <polyline points="512.0,460.0 506.5,459.4 500.8,459.4 495.1,460.0 489.4,461.2 483.7,463.0 478.2,465.5 473.0,468.6 468.0,472.4 463.3,476.6 459.1,481.5 455.4,486.8 452.2,492.6 449.6,498.7 447.7,505.2 446.4,512.0 445.9,518.9 446.1,526.0 447.0,533.1 448.8,540.1 451.3,547.1 454.5,553.7 458.6,560.1 463.3,566.1 468.7,571.7 474.7,576.6 481.3,581.0 488.4,584.7 495.9,587.7 503.8,589.8 512.0,591.2 520.4,591.6 528.8,591.2 537.3,589.9 545.7,587.6 553.8,584.5 561.7,580.4 569.2,575.5 576.2,569.8 582.6,563.3 588.4,556.1 593.4,548.3 597.6,539.8 601.0,530.9 603.3,521.6 604.8,512.0 605.1,502.2 604.5,492.3 602.8,482.5 600.0,472.8 596.2,463.4 591.4,454.3 585.6,445.7 578.9,437.7 571.3,430.4 562.9,423.8 553.8,418.2 544.0,413.5 533.7,409.8 523.0,407.1 512.0,405.7 500.8,405.3 489.5,406.2 478.3,408.3 467.3,411.6 456.6,416.0 446.3,421.6 436.6,428.3 427.6,436.0 419.4,444.7 412.1,454.3 405.8,464.7 400.5,475.8 396.5,487.4 393.6,499.6 392.1,512.0 391.8,524.6 392.9,537.3 395.4,549.9 399.1,562.2 404.2,574.2 410.6,585.7 418.2,596.5 426.9,606.5 436.7,615.6 447.5,623.7 459.2,630.6 471.6,636.4 484.6,640.8 498.1,643.9 512.0,645.5 526.0,645.7 540.1,644.4 554.1,641.5 567.8,637.3 581.0,631.5 593.7,624.4 605.6,615.9 616.6,606.2 626.6,595.3 635.5,583.3 643.1,570.4 649.3,556.6 654.1,542.2 657.4,527.3 659.1,512.0 659.2,496.5 657.6,481.0 654.5,465.7 649.7,450.7 643.3,436.2 635.4,422.4 626.0,409.3 615.3,397.3 603.2,386.4 590.1,376.8 575.9,368.5 560.8,361.8 545.0,356.6 528.7,353.1 512.0,351.3 495.1,351.3 478.2,353.1 461.5,356.6 445.2,361.9 429.4,368.9 414.4,377.6 400.3,387.9 387.2,399.6 375.4,412.8 365.0,427.1 356.1,442.6 348.9,459.0 343.3,476.1 339.6,493.9 337.8,512.0 337.8,530.3 339.8,548.6 343.7,566.7 349.5,584.3 357.2,601.4 366.6,617.6 377.8,632.8 390.6,646.9 404.8,659.6 420.3,670.7 437.1,680.3 454.8,688.1 473.3,694.0 492.5,697.9 512.0,699.8 531.7,699.7 551.4,697.5 570.9,693.2 589.9,686.9 608.2,678.6 625.6,668.4 641.9,656.3 657.0,642.5 670.6,627.2 682.5,610.4 692.7,592.5 701.0,573.4 707.2,553.5 711.4,533.0 713.4,512.0 713.2,490.9 710.8,469.7 706.1,448.9 699.3,428.6 690.4,409.0 679.3,390.4 666.4,373.0 651.6,356.9 635.2,342.5 617.2,329.7 598.0,318.9 577.6,310.1 556.3,303.5 534.4,299.1 512.0,297.0"
      fill="none" stroke="#d4a84a" stroke-width="5" stroke-linecap="round" stroke-linejoin="round"/>
  </g>

  <circle cx="512" cy="512" r="44" fill="#a01830"/>
</svg>
